<?xml version="1.0" encoding="utf-8"?>
<!-- Generator: Adobe Illustrator 25.2.0, SVG Export Plug-In . SVG Version: 6.00 Build 0)  -->
<svg version="1.1" id="Layer_1" xmlns="http://www.w3.org/2000/svg" xmlns:xlink="http://www.w3.org/1999/xlink" x="0px" y="0px"
	 viewBox="0 0 1124 442" style="enable-background:new 0 0 1124 442;" xml:space="preserve">
<style type="text/css">
	.st0{fill:#EF4363;}
	.st1{fill:#3C3B59;}
	.st2{fill:#FFFFFF;}
</style>
<g>
	<path class="st0" d="M446.3,165.5c5.8,0,10.8-2.1,15.1-6.4c4.2-4,6.4-9.1,6.4-15.1v-0.4c0-5.9-2.1-11-6.4-15.2
		c-4.3-4.3-9.3-6.4-15.1-6.4h-26.6V70.9c0-5.9-2.1-11-6.4-15.2c-4.2-4.1-9.3-6.2-15.1-6.2h-0.5c-5.8,0-10.8,2.1-15.1,6.2
		c-4.2,4.2-6.4,9.3-6.4,15.2v67.9c1,2.7,1.9,5.4,2.8,8.1c4.6,14.8,7.1,30.6,7.1,46.9s-2.5,31.9-7.1,46.7c-0.9,2.8-1.8,5.5-2.8,8.2
		v21.9c0,15.2,5.4,28.4,16.3,39.4c11,10.9,24.2,16.3,39.5,16.3h14.2c5.8,0,10.8-2.1,15.1-6.4c4.2-4,6.4-9,6.4-15.1v-0.4
		c0-5.9-2.1-11-6.4-15.2c-4.3-4.2-9.3-6.4-15.1-6.4h-14.2c-3.5,0-6.5-1.2-8.9-3.5c-2.4-2.4-3.5-5.3-3.5-8.7V165.6L446.3,165.5
		L446.3,165.5L446.3,165.5z"/>
	<path class="st0" d="M671.1,181.6c1.4,2.9,2.1,6,2.1,9c0,2.5-0.5,5-1.4,7.4c-2,5.6-5.8,9.6-11.3,12.1
		c-16.5,7.4-38.3,17.2-65.2,29.4c-33.4,15.1-53,24.1-58.8,26.8c9,11.3,23,17,42,17c12.6,0,24.1-3.7,34.4-11.2
		c10-7.3,17.1-16.8,21.1-28.4c3.4-9.7,10.3-14.5,20.6-14.5c7.3,0,13.2,3.1,17.5,9.2c2.7,3.8,4.1,7.7,4.1,11.9c0,2.5-0.5,5-1.4,7.6
		c-7,20.2-19.2,36.5-36.7,48.9c-17.7,12.9-37.6,19.3-59.5,19.3c-28.1,0-52.2-10-72.1-30c-20-20-30-44-30-72.1s10-52.2,30-72.1
		c20-20,44-29.9,72.1-29.9c20.3,0,38.9,5.6,55.7,16.7C650.7,149.6,663.1,163.9,671.1,181.6L671.1,181.6L671.1,181.6z M578.4,165.9
		c-16.3,0-30.2,5.7-41.7,17.2c-11.3,11.5-17,25.4-17,41.6v1.2l99.1-44.5C610.1,171.1,596.6,165.9,578.4,165.9L578.4,165.9
		L578.4,165.9z"/>
	<path class="st0" d="M824.7,126.9c10,3.2,15.1,10,15.1,20.6v0.9c0,7.2-2.9,12.9-8.7,17.2c-4,2.8-8.2,4.2-12.4,4.2
		c-2.2,0-4.5-0.4-6.9-1.1c-5.8-1.9-11.8-2.8-17.9-2.8c-16.3,0-30.2,5.7-41.7,17.2c-11.3,11.5-17,25.4-17,41.7s5.7,30,17,41.5
		c11.5,11.5,25.3,17.2,41.7,17.2c6.1,0,12.1-0.9,17.9-2.8c2.2-0.7,4.5-1.1,6.7-1.1c4.4,0,8.6,1.4,12.6,4.2c5.8,4.2,8.7,10,8.7,17.4
		c0,10.4-5,17.2-15.1,20.6c-9.9,3.1-20.2,4.6-30.8,4.6c-28.1,0-52.2-10-72.1-30c-20-20-30-44-30-72.1s10-52.2,30-72.1
		c20-20,44-29.9,72.1-29.9C804.5,122.1,814.8,123.7,824.7,126.9L824.7,126.9L824.7,126.9z"/>
	<path class="st0" d="M881,49.4c5.8,0,10.8,2.1,15.1,6.2c4.2,4.2,6.4,9.3,6.4,15.2v61.7c9.3-7,23.5-10.5,42.4-10.5
		c23.5,0,43.7,8.4,60.4,25.2s25.2,37,25.2,60.6v97c0,6-2.1,11-6.4,15.1c-4,4.2-9,6.4-15.1,6.4h-0.4c-5.9,0-11-2.1-15.2-6.4
		c-4.2-4-6.4-9-6.4-15.1v-96.9c0-11.7-4.1-21.7-12.2-29.9c-8.3-8.3-18.3-12.4-30-12.4s-21.9,4.1-30.1,12.4
		c-8.2,8.3-12.2,18.3-12.2,29.9v96.9c0,6-2.1,11-6.4,15.1c-4.2,4.2-9.3,6.4-15.1,6.4h-0.5c-5.8,0-10.8-2.1-15.1-6.4
		c-4.2-4-6.4-9-6.4-15.1v-234c0-5.9,2.1-11,6.4-15.2c4.2-4.1,9.3-6.2,15.1-6.2L881,49.4L881,49.4L881,49.4z"/>
</g>
<path class="st1" d="M203.2,54.7c-0.6,0.2-1.2,0.4-1.9,0.7c0-0.1,0.1-0.2,0.1-0.2C202,55,202.6,54.9,203.2,54.7L203.2,54.7
	L203.2,54.7z"/>
<path class="st1" d="M201.4,55.2c0,0.1-0.1,0.2-0.1,0.2c0.6-0.2,1.2-0.4,1.9-0.7C202.6,54.9,202,55,201.4,55.2L201.4,55.2
	L201.4,55.2z"/>
<path class="st0" d="M259.4,66.6c0,2.8-0.5,5.5-1.3,8c-2.2,6.5-7,11.7-13.1,14.6c-3.4,1.6-7.1,2.5-11.1,2.5s-8-0.9-11.4-2.6
	c-8.3-4.1-14-12.5-14-22.4c0-2.9,0.5-5.7,1.4-8.3c0.5-0.2,0.9-0.3,1.4-0.5c-0.4,0.1-0.9,0.2-1.3,0.3c3.5-9.9,13-17,24-17
	s20.5,7.1,24,17C258.9,60.8,259.4,63.6,259.4,66.6C259.4,66.5,259.4,66.5,259.4,66.6z"/>
<path class="st2" d="M108.6,180.1c0,40.8,20.1,78.4,49.4,102.4l-19.4,12.6c-27.7-25.6-45-62.4-45-103c0-62.4,41-120.6,107.8-136.9
	c0,0.1-0.1,0.2-0.1,0.2C150,73.7,108.6,125.3,108.6,180.1z"/>
<path class="st0" d="M184.4,322.9c-2.4-0.7-4.9-1.5-7.4-2.5c-14.2-6.3-27.2-14.9-38.4-25.3l19.4-12.6c5.3,4.4,9.5,7.1,15.6,10.6
	c9.3,5,17.4,7,24,6.1c14.2-1.7,21.8-16.2,20.9-40.4V97c4.7,2.3,9.9,3.6,15.5,3.6s10.4-1.2,15-3.3v159
	C250.5,312.7,221.4,333.8,184.4,322.9L184.4,322.9L184.4,322.9z"/>
<path class="st1" d="M203.2,54.7c-0.6,0.2-1.2,0.4-1.9,0.7c0-0.1,0.1-0.2,0.1-0.2C202,55,202.6,54.9,203.2,54.7L203.2,54.7
	L203.2,54.7z"/>
<path class="st2" d="M374.3,192c0,14.5-2.2,28.5-6.3,41.7c-0.8,2.5-1.6,4.9-2.5,7.3c-19.9,53.3-71.3,91.3-131.5,91.3
	c68.9-6.5,122.6-62.9,122.6-131.1c0-57.1-37.5-105.7-89.9-123.8c1.1-3.4,1.8-7,1.8-10.8s-0.7-7.8-1.9-11.4
	c45.7,10.9,82.8,44.2,99,87.7c0.9,2.4,1.7,4.8,2.5,7.3C372.1,163.4,374.3,177.4,374.3,192L374.3,192L374.3,192z"/>
<g>
	<path class="st2" d="M128.9,388.4c0,3.2-0.6,5.5-1.7,6.8c-1.4,1.6-3.3,2.6-5.7,3.1l-1.3,0.2v-4.6c1.5-0.1,2.6-0.8,3.2-1.9
		c0.4-0.7,0.7-2.2,0.7-4.4v-34.9h4.8L128.9,388.4L128.9,388.4L128.9,388.4z M128.9,348.6h-4.8v-8.3h4.8V348.6z"/>
	<path class="st2" d="M169.8,370v17.5h-4.6V382c-3.8,4.3-8.4,6.4-13.9,6.2c-4.8-0.2-8.9-2-12.2-5.6c-3.4-3.5-5.1-7.8-5.1-12.7
		s1.8-9.5,5.4-13.1s8-5.4,13-5.2c4.9,0.2,9.1,2,12.5,5.6S169.9,365.1,169.8,370L169.8,370L169.8,370z M165.1,369.7
		c-0.1-3.7-1.4-6.8-3.9-9.4c-2.5-2.6-5.6-3.9-9.1-3.9s-6.9,1.3-9.5,3.9c-2.6,2.6-3.9,5.8-4,9.5c-0.1,3.7,1.1,6.9,3.6,9.7
		c2.5,2.8,5.6,4.2,9.1,4.4c3.8,0.2,7.1-1.2,9.8-4C163.9,376.9,165.2,373.5,165.1,369.7L165.1,369.7L165.1,369.7z"/>
	<path class="st2" d="M224.8,387.5H220v-21.4c0-2.7-0.8-5-2.3-6.9s-3.6-2.9-6.1-2.9s-4.8,0.8-6.6,2.5s-2.8,3.8-2.8,6.2v22.5h-4.9
		V365c0-2.5-0.9-4.6-2.8-6.2c-1.9-1.7-4.1-2.5-6.6-2.5s-4.6,1-6.1,2.8c-1.5,1.9-2.3,4.2-2.3,6.9v21.4h-4.8v-20.9
		c0-4.4,1.2-7.9,3.7-10.5c2.3-2.5,5.4-3.9,9.2-4.2c5.1-0.4,9.1,1.8,12.1,6.5c3-4.7,7.1-6.9,12.1-6.5c3.8,0.3,6.9,1.7,9.2,4.2
		c2.5,2.6,3.8,6.2,3.8,10.5V387.5z"/>
	<path class="st2" d="M260.5,387.5h-4.6v-20.3c0-2.9-1.1-5.5-3.3-7.6c-2.2-2.1-4.7-3.2-7.6-3.1c-3,0-5.5,1-7.5,3s-3.1,4.4-3.1,7.4
		v20.7h-4.6v-47.2h4.6v17.2c2.7-3.5,6.1-5.3,10.2-5.5c4.3-0.2,8.1,1.2,11.2,4.3c3.1,3.1,4.7,6.8,4.7,11.3V387.5L260.5,387.5
		L260.5,387.5z"/>
	<path class="st2" d="M295.8,372.5c0,4.5-1.5,8.3-4.4,11.3c-2.9,3-6.6,4.5-11,4.5s-8.1-1.5-11-4.5c-2.9-3-4.4-6.8-4.4-11.3v-19.9
		h4.6v20.5c0,2.9,1.1,5.5,3.2,7.6c2.1,2.1,4.7,3.1,7.5,3.1s5.4-1,7.5-3.1c2.1-2.1,3.2-4.6,3.2-7.6v-20.5h4.6L295.8,372.5
		L295.8,372.5L295.8,372.5z"/>
	<path class="st2" d="M314.7,356.6c-2.2,0.1-3.9,0.7-5.3,1.8c-1.4,1.1-2.3,2.1-2.8,2.9c-0.8,1.4-1.2,3.1-1.2,5.4v20.9h-4.9v-34.9
		h4.3v5c1-1.9,2.4-3.3,4.3-4.3c1.8-0.9,3.5-1.4,5.4-1.3L314.7,356.6L314.7,356.6L314.7,356.6z"/>
	<path class="st2" d="M323,348.5h-4.6v-8.1h4.6V348.5z M323,387.5h-4.6v-34.9h4.6V387.5z"/>
	<path class="st2" d="M359.6,352.6l-19.8,47h-5l5.2-13.2l-13.3-33.8h5.1l11.1,27.7l11.8-27.7H359.6z"/>
	<path class="st2" d="M394.1,370v17.5h-4.6V382c-3.8,4.3-8.4,6.4-13.9,6.2c-4.8-0.2-8.9-2-12.2-5.6c-3.4-3.5-5.1-7.8-5.1-12.7
		s1.8-9.5,5.4-13.1s8-5.4,13-5.2c4.9,0.2,9,2,12.5,5.6C392.6,360.9,394.3,365.1,394.1,370L394.1,370L394.1,370z M389.5,369.7
		c-0.1-3.7-1.4-6.8-3.9-9.4c-2.5-2.6-5.6-3.9-9.1-3.9s-6.9,1.3-9.5,3.9c-2.6,2.6-3.9,5.8-4,9.5c-0.1,3.7,1.1,6.9,3.6,9.7
		c2.5,2.8,5.5,4.2,9.1,4.4c3.8,0.2,7.1-1.2,9.8-4C388.2,376.9,389.6,373.5,389.5,369.7L389.5,369.7L389.5,369.7z"/>
	<path class="st2" d="M442.3,388.2c-8.5,0-12.7-3.6-12.7-10.8v-37h4.6v12.2h8.1v4.3h-8.1v19.7c0,5.2,2.7,7.8,8.1,7.8V388.2
		L442.3,388.2L442.3,388.2z"/>
	<path class="st2" d="M477.4,371.6h-31.3c0.4,3.5,1.9,6.4,4.5,8.7c2.6,2.3,5.7,3.4,9.2,3.4c5.5-0.1,9.4-2.6,11.8-7.6h5
		c-1.3,3.8-3.5,6.7-6.6,8.9c-3.1,2.2-6.5,3.3-10.3,3.4c-4.8,0.1-9-1.7-12.7-5.2s-5.5-7.8-5.6-12.8c-0.1-5.2,1.7-9.7,5.5-13.5
		c3.8-3.8,8.3-5.5,13.5-5.2c4.6,0.3,8.7,2.2,12.1,5.8c3.3,3.5,5,7.4,5,11.7L477.4,371.6L477.4,371.6L477.4,371.6z M472.8,367.4
		c-0.6-3.3-2.2-5.9-4.6-7.9c-2.4-2-5.3-3-8.6-3.1s-6.3,1-8.8,3s-4.1,4.7-4.7,8H472.8L472.8,367.4L472.8,367.4z"/>
	<path class="st2" d="M517.7,377.2l-0.5,1c-3.7,6.8-9.3,10.1-17,10c-5.1,0-9.4-1.8-13.1-5.3c-3.7-3.5-5.5-7.8-5.6-12.8
		c-0.1-5.1,1.7-9.4,5.4-13s8.1-5.5,13.2-5.5c3.7,0,7.1,0.9,10.3,2.9c3,1.9,5.2,4.2,6.5,7.1l0.7,1.5h-5.3c-2.6-4.5-6.6-6.9-12-7
		c-3.6-0.1-6.8,1.2-9.7,3.9c-3,2.8-4.5,6.1-4.5,9.9s1.4,7.1,4.2,9.8s6.1,4.1,9.9,4c5.4-0.1,9.5-2.3,12.2-6.5L517.7,377.2
		L517.7,377.2L517.7,377.2z"/>
	<path class="st2" d="M550.9,387.5h-4.7v-20.3c0-2.9-1.1-5.5-3.3-7.6c-2.2-2.1-4.7-3.2-7.7-3.1c-3,0-5.5,1-7.5,3s-3,4.4-3,7.4v20.7
		h-4.7v-47.2h4.7v17.2c2.7-3.5,6.1-5.3,10.2-5.5c4.3-0.2,8.1,1.2,11.2,4.3s4.7,6.8,4.7,11.3L550.9,387.5L550.9,387.5L550.9,387.5z"
		/>
	<path class="st2" d="M586.1,387.5h-4.7v-20.4c0-2.9-1.1-5.5-3.2-7.6c-2.2-2.1-4.7-3.2-7.5-3.2s-5.5,1.1-7.6,3.2
		c-2.2,2.1-3.2,4.6-3.2,7.6v20.4h-4.7v-19.9c0-4.5,1.5-8.3,4.4-11.3c2.9-3,6.6-4.5,11.1-4.5s8.1,1.5,11,4.5s4.4,6.8,4.4,11.3
		L586.1,387.5L586.1,387.5L586.1,387.5z"/>
	<path class="st2" d="M626.8,370.1c0,5-1.8,9.4-5.5,13c-3.7,3.6-8,5.4-13,5.2c-4.8-0.1-9-2-12.3-5.5c-3.4-3.5-5-7.8-5-12.7
		s1.8-9.5,5.4-13.1s8-5.4,13-5.2c4.8,0.2,9,2,12.3,5.6S626.8,365.2,626.8,370.1z M622.2,369.7c-0.1-3.7-1.4-6.8-4-9.5
		c-2.5-2.6-5.5-3.9-9.1-3.9c-3.7,0-6.9,1.3-9.5,3.9c-2.6,2.6-3.9,5.8-4,9.5c-0.1,3.7,1.1,6.9,3.6,9.7c2.5,2.8,5.5,4.2,9.1,4.3
		c3.8,0.2,7.1-1.1,9.8-4C621,376.9,622.3,373.5,622.2,369.7L622.2,369.7L622.2,369.7z"/>
	<path class="st2" d="M636.2,387.5h-4.7v-47.2h4.7V387.5z"/>
	<path class="st2" d="M677.3,370.1c0,5-1.8,9.4-5.5,13c-3.7,3.6-8,5.4-13,5.2c-4.8-0.1-9-2-12.3-5.5c-3.4-3.5-5-7.8-5-12.7
		s1.8-9.5,5.4-13.1s8-5.4,13-5.2c4.8,0.2,9,2,12.3,5.6S677.3,365.2,677.3,370.1z M672.7,369.7c-0.1-3.7-1.4-6.8-4-9.5
		c-2.5-2.6-5.5-3.9-9.1-3.9c-3.7,0-6.9,1.3-9.5,3.9c-2.6,2.6-3.9,5.8-4,9.5c-0.1,3.7,1.1,6.9,3.6,9.7c2.5,2.8,5.5,4.2,9.1,4.3
		c3.8,0.2,7.1-1.1,9.8-4C671.4,376.9,672.8,373.5,672.7,369.7L672.7,369.7L672.7,369.7z"/>
	<path class="st2" d="M717.9,369.8v16.1c0,4.4-1.8,8-5.4,11c-3.6,2.9-7.7,4.3-12.4,4.1c-4.2-0.2-7.8-1.4-10.8-3.8
		c-2.9-2.3-4.8-5.2-5.8-8.8h4.5c0.7,2.4,2.2,4.5,4.6,6.2c2.4,1.7,5,2.6,7.9,2.6c3.4,0,6.4-1.2,8.9-3.6c2.5-2.4,3.8-5.1,3.8-8.4v-3.3
		c-3.4,3.9-7.7,5.9-12.8,6.1c-5,0.2-9.3-1.6-12.9-5.2s-5.4-8-5.4-13.1s1.7-9.1,5-12.6c3.4-3.5,7.5-5.4,12.3-5.6
		c5-0.1,9.4,1.6,13.1,5.3S717.9,364.8,717.9,369.8L717.9,369.8L717.9,369.8z M713.2,370.1c0.1-3.8-1.2-7.2-3.9-10
		c-2.7-2.9-6-4.2-9.8-4c-3.6,0.2-6.6,1.6-9.1,4.4c-2.5,2.8-3.7,6-3.7,9.6c0.1,3.7,1.4,6.9,4,9.5c2.6,2.6,5.8,3.9,9.4,3.9
		s6.7-1.3,9.2-3.9C711.8,376.9,713.1,373.8,713.2,370.1L713.2,370.1L713.2,370.1z"/>
	<path class="st2" d="M749.9,352.6l-19.8,47h-5l5.2-13.2L717,352.6h5.1l11.2,27.7l11.8-27.7H749.9z"/>
	<path class="st2" d="M806.4,377.1c0.2,3.1-0.9,5.9-3.3,8.2c-2.5,2.3-5.3,3.4-8.4,3.1c-2.9-0.2-5.4-1.4-7.4-3.5c-2-2.2-3-4.7-3-7.7
		h4.8v1.2c0,1.2,0.7,2.4,2,3.7c1.3,1.3,2.7,1.9,4.2,1.9c2,0,3.5-0.6,4.7-1.8c1-1.1,1.5-2.5,1.6-4.2c0-3-1.7-5-5.1-6.1l-4.1-1.3
		c-4.3-1.4-6.5-4.3-6.7-8.8c-0.1-2.7,0.8-5,2.7-6.9c1.9-1.9,4.3-2.9,7-3.1c2.4-0.1,4.6,0.6,6.7,2.3c2.1,1.6,3.2,3.7,3.3,6.1v1h-4.9
		v-0.8c0-1.2-0.5-2.2-1.6-3s-2.2-1.1-3.6-1.1c-1.3,0-2.4,0.5-3.4,1.4c-1,0.9-1.5,2-1.5,3.4c-0.2,2.5,1.3,4.3,4.5,5.4l4,1.4
		C803.6,369.4,806.1,372.5,806.4,377.1L806.4,377.1L806.4,377.1z"/>
	<path class="st2" d="M845.3,370.1c0,5-1.8,9.4-5.5,13c-3.7,3.6-8,5.4-13,5.2c-4.8-0.1-9-2-12.3-5.5c-3.4-3.5-5-7.8-5-12.7
		s1.8-9.5,5.4-13.1s8-5.4,13-5.2c4.8,0.2,9,2,12.3,5.6S845.3,365.2,845.3,370.1z M840.7,369.7c-0.1-3.7-1.4-6.8-4-9.5
		c-2.5-2.6-5.5-3.9-9.1-3.9c-3.7,0-6.9,1.3-9.5,3.9c-2.6,2.6-3.9,5.8-4,9.5c-0.1,3.7,1.1,6.9,3.6,9.7c2.5,2.8,5.5,4.2,9.1,4.3
		c3.8,0.2,7.1-1.1,9.8-4C839.5,376.9,840.8,373.5,840.7,369.7L840.7,369.7L840.7,369.7z"/>
	<path class="st2" d="M854.7,387.5H850v-47.2h4.7V387.5z"/>
	<path class="st2" d="M890.8,372.5c0,4.5-1.5,8.3-4.4,11.3c-2.9,3-6.6,4.5-11,4.5s-8.1-1.5-11-4.5c-2.9-3-4.4-6.8-4.4-11.3v-19.9
		h4.7v20.5c0,2.9,1.1,5.5,3.2,7.6c2.2,2.1,4.7,3.1,7.5,3.1s5.4-1,7.5-3.1s3.2-4.6,3.2-7.6v-20.5h4.7L890.8,372.5L890.8,372.5
		L890.8,372.5z"/>
	<path class="st2" d="M908.7,388.2c-8.5,0-12.7-3.6-12.7-10.8v-37h4.7v12.2h8.1v4.3h-8.1v19.7c0,5.2,2.7,7.8,8.1,7.8L908.7,388.2
		L908.7,388.2L908.7,388.2z"/>
	<path class="st2" d="M917.4,348.5h-4.7v-8.1h4.7V348.5z M917.4,387.5h-4.7v-34.9h4.7V387.5z"/>
	<path class="st2" d="M958.4,370.1c0,5-1.8,9.4-5.5,13c-3.7,3.6-8,5.4-13,5.2c-4.8-0.1-9-2-12.3-5.5c-3.4-3.5-5-7.8-5-12.7
		s1.8-9.5,5.4-13.1s8-5.4,13-5.2c4.8,0.2,9,2,12.3,5.6S958.4,365.2,958.4,370.1z M953.7,369.7c-0.1-3.7-1.4-6.8-4-9.5
		c-2.5-2.6-5.5-3.9-9.1-3.9c-3.7,0-6.9,1.3-9.5,3.9c-2.6,2.6-3.9,5.8-4,9.5c-0.1,3.7,1.1,6.9,3.6,9.7c2.5,2.8,5.5,4.2,9.1,4.3
		c3.8,0.2,7.1-1.1,9.8-4C952.5,376.9,953.8,373.5,953.7,369.7L953.7,369.7L953.7,369.7z"/>
	<path class="st2" d="M993.8,387.5h-4.7v-20.4c0-2.9-1.1-5.5-3.2-7.6c-2.2-2.1-4.7-3.2-7.5-3.2s-5.5,1.1-7.6,3.2
		c-2.2,2.1-3.2,4.6-3.2,7.6v20.4h-4.7v-19.9c0-4.5,1.5-8.3,4.4-11.3c2.9-3,6.6-4.5,11.1-4.5s8.1,1.5,11,4.5s4.4,6.8,4.4,11.3
		L993.8,387.5L993.8,387.5L993.8,387.5z"/>
	<path class="st2" d="M1020.8,377.1c0.2,3.1-0.9,5.9-3.3,8.2c-2.5,2.3-5.3,3.4-8.4,3.1c-2.9-0.2-5.4-1.4-7.4-3.5c-2-2.2-3-4.7-3-7.7
		h4.8v1.2c0,1.2,0.7,2.4,2,3.7c1.3,1.3,2.7,1.9,4.2,1.9c2,0,3.5-0.6,4.7-1.8c1-1.1,1.5-2.5,1.6-4.2c0-3-1.7-5-5.1-6.1l-4.1-1.3
		c-4.3-1.4-6.5-4.3-6.7-8.8c-0.1-2.7,0.8-5,2.7-6.9c1.9-1.9,4.3-2.9,7-3.1c2.4-0.1,4.6,0.6,6.7,2.3c2.1,1.6,3.2,3.7,3.3,6.1v1h-4.9
		v-0.8c0-1.2-0.5-2.2-1.6-3s-2.2-1.1-3.6-1.1c-1.3,0-2.4,0.5-3.4,1.4c-1,0.9-1.5,2-1.5,3.4c-0.2,2.5,1.3,4.3,4.5,5.4l4,1.4
		C1018,369.4,1020.5,372.5,1020.8,377.1L1020.8,377.1L1020.8,377.1z"/>
</g>
</svg>
